<?xml version="1.0" encoding="iso-8859-1"?>
<!-- Uploaded to: SVG Repo, www.svgrepo.com, Generator: SVG Repo Mixer Tools -->
<svg fill="#000000" height="800px" width="800px" version="1.1" id="Layer_1" xmlns="http://www.w3.org/2000/svg" xmlns:xlink="http://www.w3.org/1999/xlink" 
	 viewBox="0 0 512 512" xml:space="preserve">
<g>
	<g>
		<path d="M429.633,154.02L310.94,272.713c0.392,19.495-6.813,39.117-21.658,53.961c-14.012,14.012-32.641,21.728-52.456,21.728
			s-38.444-7.716-52.456-21.728c-28.924-28.924-28.924-75.988,0-104.912c14.012-14.012,32.641-21.728,52.456-21.728
			c0.514,0,1.024,0.027,1.538,0.038L356.583,81.853c-35.682-22.266-77.824-35.145-122.981-35.145
			c-128.487,0-232.646,104.159-232.646,232.646S105.115,512,233.602,512s232.646-104.159,232.646-232.646
			C466.248,233.204,452.809,190.194,429.633,154.02z"/>
	</g>
</g>
<g>
	<g>
		<path d="M506.031,5.013c-6.682-6.685-17.518-6.683-24.202,0L275.774,211.069l-25.515,25.515c-4.336-1.544-8.883-2.32-13.433-2.32
			c-10.226,0-20.451,3.901-28.253,11.702c-15.604,15.604-15.604,40.903,0,56.507c7.802,7.802,18.028,11.702,28.253,11.702
			c10.226,0,20.452-3.9,28.253-11.702c11.273-11.273,14.397-27.605,9.382-41.685l25.498-25.498L506.031,29.216
			C512.715,22.533,512.715,11.696,506.031,5.013z"/>
	</g>
</g>
</svg>